<svg xmlns="http://www.w3.org/2000/svg" version="1.1" xmlns:xlink="http://www.w3.org/1999/xlink" xmlns:svgjs="http://svgjs.com/svgjs" width="512" height="512" x="0" y="0" viewBox="0 0 512.004 512.004" style="enable-background:new 0 0 512 512" xml:space="preserve" class=""><g><path xmlns="http://www.w3.org/2000/svg" d="m99.828 512c-81.973.741-129.195-96.735-78.678-160.347.351-.762 79.21-127.241 79.21-127.241 5.849-9.37 18.185-12.226 27.556-6.38 9.371 5.848 12.227 18.185 6.38 27.556l-42.253 67.714c137.082-4.322 144.722 192.32 7.785 198.698zm0-159c-32.809 0-59.5 26.691-59.5 59.5 2.991 78.826 116.021 78.805 119-.001 0-32.807-26.692-59.499-59.5-59.499zm148.519 82.003c-6.616 0-13.09-3.28-16.9-9.278-5.923-9.323-3.167-21.683 6.157-27.606l77.878-49.475c-214.885-32.865-196.862-342.282 21.849-348.644 178.559 1.165 240.196 236.658 88.49 325.935l-166.769 105.947c-3.325 2.112-7.037 3.121-10.705 3.121zm88.981-395.003c-74.439 0-135 60.561-135 135 6.135 178.73 265.609 179.017 270-.002 0-74.437-60.561-134.998-135-134.998zm-237 397c-13.785 0-25-11.215-25-25 1.257-33.12 48.748-33.111 50 0 0 13.785-11.215 25-25 25zm238-166c-11.046 0-20-8.954-20-20v-20.427c-7.47-2.648-14.261-6.735-20.044-11.928l-18.461 9.958c-9.721 5.244-21.853 1.614-27.097-8.108s-1.614-21.854 8.108-27.097l18.254-9.846c-1.009-6.189-1.009-12.902-.001-19.091l-18.262-9.862c-9.719-5.249-13.343-17.383-8.094-27.102 5.25-9.719 17.382-13.343 27.102-8.094l18.443 9.96c5.785-5.196 12.58-9.286 20.053-11.936v-20.427c.983-26.508 39.026-26.488 40 0v20.427c7.473 2.649 14.268 6.739 20.053 11.936l18.443-9.96c9.72-5.248 21.852-1.625 27.102 8.094 5.249 9.719 1.625 21.853-8.094 27.102l-18.262 9.862c1.008 6.189 1.007 12.903-.001 19.091l18.254 9.846c9.722 5.244 13.352 17.375 8.108 27.097-5.243 9.722-17.376 13.353-27.097 8.108l-18.461-9.958c-5.783 5.193-12.575 9.279-20.044 11.928v20.427c-.002 11.046-8.956 20-20.002 20zm0-117c-11.028 0-20 8.972-20 20 1.006 26.496 38.998 26.489 40 0 0-11.028-8.972-20-20-20z" fill="#000000" data-original="#000000" class=""></path></g></svg>