<svg xmlns="http://www.w3.org/2000/svg" version="1.1" xmlns:xlink="http://www.w3.org/1999/xlink" xmlns:svgjs="http://svgjs.com/svgjs" width="512" height="512" x="0" y="0" viewBox="0 0 512 512" style="enable-background:new 0 0 512 512" xml:space="preserve" class=""><g><g xmlns="http://www.w3.org/2000/svg"><g><path d="m202.468 313.567 9.476 4.245c1.328.595 2.716.876 4.082.876 3.821 0 7.469-2.202 9.132-5.915 2.258-5.04.002-10.956-5.038-13.214l-9.476-4.245c-5.041-2.259-10.957-.002-13.214 5.038-2.258 5.042-.002 10.958 5.038 13.215z" fill="#000000" data-original="#000000" class=""></path><path d="m145.866 295.315-9.476 4.245c-5.041 2.258-7.296 8.174-5.038 13.214 1.663 3.713 5.311 5.915 9.132 5.915 1.366 0 2.755-.282 4.082-.876l9.476-4.245c5.041-2.258 7.296-8.174 5.038-13.214-2.259-5.041-8.175-7.297-13.214-5.039z" fill="#000000" data-original="#000000" class=""></path><path d="m362.752 147.557h24.214c5.522 0 10-4.477 10-10s-4.478-10-10-10h-14.214v-69.933c0-5.523-4.478-10-10-10s-10 4.477-10 10v79.933c0 5.523 4.477 10 10 10z" fill="#000000" data-original="#000000" class=""></path><path d="m257.335 147.624c5.522 0 10-4.477 10-10v-80c0-5.523-4.478-10-10-10-5.523 0-10 4.477-10 10v28.628h-24v-28.628c0-5.523-4.477-10-10-10s-10 4.477-10 10v80c0 5.523 4.477 10 10 10s10-4.477 10-10v-31.372h24v31.372c0 5.523 4.477 10 10 10z" fill="#000000" data-original="#000000" class=""></path><path d="m282.335 57.989v79.27c0 5.523 4.478 10 10 10h30.938c5.522 0 10-4.477 10-10s-4.478-10-10-10h-20.938v-19.635h18.657c5.522 0 10-4.477 10-10s-4.478-10-10-10h-18.657v-19.635h20.938c5.522 0 10-4.477 10-10s-4.478-10-10-10h-30.938c-5.523 0-10 4.477-10 10z" fill="#000000" data-original="#000000" class=""></path><path d="m429.706 137.624v-24.813c3.357-.019 6.862-.034 9.275-.034 18.206-.001 33.019-14.614 33.019-32.577s-14.812-32.576-33.019-32.576h-19.275c-5.522 0-10 4.477-10 10v80c0 5.523 4.478 10 10 10s10-4.477 10-10zm0-70h9.275c7.057 0 13.019 5.759 13.019 12.576s-5.962 12.576-13.019 12.576c-2.423 0-5.919.015-9.275.034z" fill="#000000" data-original="#000000" class=""></path><path d="m475.134 0h-93.487c-5.522 0-10 4.477-10 10s4.478 10 10 10h93.487c9.3 0 16.866 7.566 16.866 16.866v121.516c0 9.3-7.566 16.866-16.866 16.866h-66.257c-5.522 0-10 4.477-10 10 0 15.792-10.84 29.099-25.469 32.872 3.272-10.576 4.925-21.58 4.925-32.872 0-5.523-4.478-10-10-10h-170.173c-9.3 0-16.866-7.566-16.866-16.866v-121.516c0-9.3 7.566-16.866 16.866-16.866h93.486c5.522 0 10-4.477 10-10s-4.478-10-10-10h-93.486c-20.328 0-36.866 16.538-36.866 36.866v91.23c-25.509 3.793-48.957 16.09-66.73 35.159-19.792 21.236-30.693 48.927-30.693 77.972 0 20.846 5.642 41.135 16.319 58.885v13.756c0 35.123 18.564 65.987 46.392 83.31 0 .007-.001.013-.001.02 0 11.373-8.156 21.525-19.393 23.279l-28.261 4.41c-39.146 6.109-70.783 36.293-78.724 75.109-.602 2.943.15 6 2.049 8.327 1.9 2.327 4.745 3.677 7.748 3.677h336.51c3.004 0 5.849-1.35 7.747-3.677 1.899-2.327 2.652-5.384 2.05-8.327-7.94-38.815-39.577-69-78.724-75.109l-28.261-4.41c-11.237-1.754-19.393-11.906-19.393-23.279 0-.007-.001-.013-.001-.02 27.828-17.323 46.393-48.187 46.393-83.31v-13.757c10.678-17.75 16.319-38.038 16.319-58.884 0-15.933-3.304-31.565-9.632-45.979h74.79c-1.094 10.13-3.863 19.911-8.272 29.182-1.363 2.867-1.284 6.211.213 9.011 1.498 2.8 4.235 4.722 7.377 5.179 2.601.379 5.231.571 7.819.571 26.327 0 48.311-18.96 53.013-43.942h57.187c20.328 0 36.866-16.538 36.866-36.866v-121.517c-.001-20.328-16.539-36.866-36.867-36.866zm-200.635 444.647c26.766 4.177 49.089 22.597 58.686 47.353h-309.86c9.597-24.756 31.921-43.176 58.686-47.353l28.261-4.41c3.106-.485 6.083-1.294 8.907-2.378 15.965 14.876 37.094 23.283 59.076 23.283s43.111-8.407 59.076-23.283c2.824 1.083 5.801 1.893 8.907 2.378zm-54.054-18.582c-11.828 9.67-26.735 15.077-42.19 15.077s-30.362-5.407-42.19-15.077c4.804-5.513 8.182-12.259 9.665-19.683 10.184 3.591 21.129 5.552 32.526 5.552s22.342-1.961 32.526-5.552c1.482 7.424 4.859 14.17 9.663 19.683zm35.875-112.196c0 43.045-35.02 78.065-78.065 78.065s-78.065-35.02-78.065-78.065v-49.162c12.295-17.572 29.925-30.378 50.279-36.564 29.83 25.167 66.934 39.879 105.852 42.036v43.69zm16.32-72.641c0 3.876-.25 7.726-.716 11.536-1.76-1.457-3.982-2.301-6.324-2.311-39.174-.173-76.795-14.667-105.931-40.814-2.463-2.209-5.861-3.06-9.072-2.267-26.751 6.593-50.041 22.451-66.076 44.865-.424-3.638-.65-7.312-.65-11.009 0-23.967 8.993-46.815 25.323-64.336 13.979-14.998 32.208-24.903 52.1-28.511v10.002c0 20.328 16.538 36.866 36.866 36.866h62.528c7.824 14.003 11.952 29.799 11.952 45.979z" fill="#000000" data-original="#000000" class=""></path><circle cx="336.649" cy="10" r="10" fill="#000000" data-original="#000000" class=""></circle></g></g></g></svg>